<svg width="38" height="40" viewBox="0 0 38 40" fill="none" xmlns="http://www.w3.org/2000/svg">
<path d="M7.75007 6C8.75007 5 8.00007 2 6.31207 2C4.62407 2 4.75007 4 5.75007 4C6.75007 4 6.75007 6 6.75007 7C6.75007 8 7.75007 6 7.75007 6ZM3.56707 7.72C4.56707 6.72 3.81707 3.72 2.12907 3.72C0.441068 3.72 0.567068 5.72 1.56707 5.72C2.56707 5.72 2.56707 7.72 2.56707 8.72C2.56707 9.72 3.56707 7.72 3.56707 7.72Z" fill="#AA8DD8"/>
<path d="M29.942 34.856C30.131 35.664 31.169 37.136 31.974 36.947C32.78 36.757 33.051 34.976 32.862 34.17C32.673 33.362 31.864 32.863 31.058 33.053C30.253 33.243 29.752 34.05 29.942 34.856ZM24.508 35.505C24.511 36.335 25.189 38.003 26.017 38C26.845 37.996 27.511 36.323 27.508 35.494C27.505 34.665 26.831 33.997 26.003 33.999C25.175 34.003 24.505 34.676 24.508 35.505ZM19.237 33.059C18.911 33.823 18.872 35.622 19.633 35.949C20.396 36.273 21.67 35.002 21.996 34.239C22.321 33.477 21.968 32.596 21.207 32.269C20.445 31.944 19.564 32.296 19.237 33.059ZM14.206 22.019C13.394 22.191 11.898 23.192 12.067 24.002C12.24 24.812 14.012 25.126 14.824 24.955C15.635 24.784 16.153 23.988 15.984 23.178C15.812 22.368 15.019 21.848 14.206 22.019ZM12.169 17.019C11.357 17.191 9.86104 18.192 10.03 19.002C10.203 19.812 11.975 20.126 12.787 19.955C13.598 19.784 14.116 18.988 13.947 18.178C13.775 17.368 12.981 16.848 12.169 17.019Z" fill="#744EAA"/>
<path d="M27.5791 36C30.41 36 32.505 35.123 32.845 34.973C35.1161 33.963 36.1381 31.304 35.1291 29.034C34.1301 26.784 31.5131 25.759 29.2571 26.72C29.1241 26.77 27.4641 27.369 25.9141 26.648C24.0631 25.787 22.9191 23.339 22.2861 21.439C22.1421 21.009 21.9011 20.165 21.6 19.123C19.7341 12.652 18.7681 10.838 17.6171 9.30299C13.906 4.35199 8.02505 4.00699 5.13405 4.58699C2.69705 5.07399 1.11605 7.44499 1.60405 9.88199C2.09205 12.32 4.46405 13.902 6.90005 13.412C7.06205 13.386 9.10405 13.106 10.3241 14.581C10.9671 15.868 12.4041 19.709 12.9541 21.615C13.3001 22.814 13.5831 23.786 13.7481 24.282C15.5211 29.599 18.4141 33.175 22.3511 34.911C24.2031 35.729 26.0051 36 27.5791 36Z" fill="#9266CC"/>
<path d="M7.01709 8C7.56937 8 8.01709 7.55228 8.01709 7C8.01709 6.44772 7.56937 6 7.01709 6C6.46481 6 6.01709 6.44772 6.01709 7C6.01709 7.55228 6.46481 8 7.01709 8Z" fill="#202024"/>
<path d="M31.2581 34.964C31.1691 34.964 31.0781 34.952 30.9891 34.928C30.4571 34.78 30.1451 34.229 30.2931 33.697C31.0501 30.975 29.5231 29.155 29.5081 29.137C29.1491 28.718 29.1961 28.086 29.6151 27.727C30.0331 27.368 30.6661 27.415 31.0251 27.834C31.1171 27.941 33.2591 30.494 32.2201 34.231C32.0981 34.674 31.6951 34.964 31.2581 34.964ZM24.0591 34.401C23.8141 34.401 23.5691 34.312 23.3751 34.131C22.9721 33.753 22.9511 33.12 23.3281 32.717C24.8131 31.13 24.7811 28.524 24.7801 28.497C24.7641 27.945 25.1991 27.485 25.7521 27.469C26.2941 27.464 26.7651 27.888 26.7801 28.441C26.7841 28.58 26.8531 31.878 24.7891 34.085C24.5921 34.295 24.3251 34.401 24.0591 34.401ZM15.5171 25.705C15.0371 25.705 14.6131 25.358 14.5321 24.868C14.4421 24.324 14.8101 23.808 15.3551 23.719C18.4291 23.209 20.1291 21.342 20.1461 21.323C20.5111 20.913 21.1441 20.874 21.5551 21.239C21.9671 21.604 22.0081 22.232 21.6461 22.645C21.5591 22.744 19.4901 25.06 15.6821 25.691C15.6261 25.701 15.5711 25.705 15.5171 25.705ZM18.4381 30.562C18.0131 30.562 17.6191 30.29 17.4841 29.864C17.3181 29.338 17.6101 28.775 18.1361 28.609C20.8291 27.756 22.0161 25.779 22.0281 25.759C22.3081 25.282 22.9201 25.122 23.3961 25.402C23.8731 25.681 24.0321 26.295 23.7531 26.77C23.6901 26.878 22.1581 29.433 18.7401 30.514C18.6391 30.547 18.5371 30.562 18.4381 30.562ZM13.8191 19.892C13.3231 19.892 12.8921 19.523 12.8281 19.017C12.7591 18.469 13.1471 17.969 13.6951 17.899C16.3841 17.559 18.3521 15.928 18.3711 15.911C18.7931 15.557 19.4241 15.608 19.7791 16.03C20.1351 16.451 20.0841 17.08 19.6641 17.437C19.5671 17.52 17.2441 19.466 13.9461 19.883C13.9031 19.889 13.8611 19.892 13.8191 19.892ZM11.9981 15.125C11.5731 15.125 11.1791 14.852 11.0441 14.424C10.8791 13.897 11.1711 13.336 11.6981 13.17C14.8281 12.187 15.9511 10.478 15.9971 10.406C16.2921 9.944 16.9081 9.801 17.3721 10.094C17.8371 10.386 17.9831 10.993 17.6961 11.46C17.6361 11.557 16.1901 13.856 12.2971 15.079C12.1981 15.11 12.0971 15.125 11.9981 15.125Z" fill="#744EAA"/>
</svg>
